/vscmnt/brussel_pixiu_data/_data_brussel/112/vsc11236/PredSimResults/SUBJ11mtu3D/weighted-LRposFixed/expIG/worker_04.mot
version=1
nRows=10
nColumns=50
inDegrees=yes
endheader
                time	         pelvis_tilt	         pelvis_list	     pelvis_rotation	           pelvis_tx	           pelvis_ty	           pelvis_tz	       hip_flexion_r	     hip_adduction_r	      hip_rotation_r	        knee_angle_r	       ankle_angle_r	         mtp_angle_r	       hip_flexion_l	     hip_adduction_l	      hip_rotation_l	        knee_angle_l	       ankle_angle_l	         mtp_angle_l	    lumbar_extension	      lumbar_bending	     lumbar_rotation	 ercspn_r/activation	 intobl_r/activation	 extobl_r/activation	    abd_r/activation	    add_r/activation	hamstrings_r/activation	bifemsh_r/activation	glut_max_r/activation	iliopsoas_r/activation	rect_fem_r/activation	  vasti_r/activation	gastroc_r/activation	 soleus_r/activation	tib_ant_r/activation	 ercspn_l/activation	 intobl_l/activation	 extobl_l/activation	    abd_l/activation	    add_l/activation	hamstrings_l/activation	bifemsh_l/activation	glut_max_l/activation	iliopsoas_l/activation	rect_fem_l/activation	  vasti_l/activation	gastroc_l/activation	 soleus_l/activation	tib_ant_l/activation	
          2.13050122	         -5.93365003	          5.13896836	         -8.27324890	          2.15180624	          0.94207071	          0.01771194	        -11.76097868	         -5.57820362	          4.74199658	         -7.04190091	         12.72618791	         26.17534103	         30.96233130	          1.54790623	         -4.39862000	         -4.30984353	          5.46634566	          0.20743923	         -3.90403584	         -3.12737019	          2.05159944	          0.02697788	          0.00999999	          0.01000000	          0.05472394	          0.02697332	          0.02892299	          0.13827106	          0.05472402	          0.44501190	          0.01000002	          0.01000001	          0.36099643	          0.26429435	          0.01059484	          0.09047113	          0.15162303	          0.02893077	          0.01236721	          0.10227640	          0.04609996	          0.19545340	          0.01222588	          0.09004016	          0.01412648	          0.01000000	          0.01426255	          0.00999999	          0.28190918	
          2.14470457	         -6.07439062	          4.95979253	         -8.31672759	          2.16944671	          0.93979626	          0.01692797	        -12.05394036	         -5.47148905	          4.35802456	         -8.24235594	         12.27643458	         28.09922165	         31.04383607	          1.56363152	         -4.42333776	         -5.79795558	          5.00994784	          0.21210610	         -3.60140484	         -3.38526230	          2.23845686	          0.06788710	          0.00999999	          0.01000000	          0.04424917	          0.05363593	          0.02338682	          0.11180445	          0.04424924	          0.45367063	          0.01000002	          0.01000000	          0.33289367	          0.25188972	          0.00999999	          0.07315396	          0.12260078	          0.02339310	          0.00999999	          0.15015044	          0.04598937	          0.15804147	          0.05947083	          0.07280548	          0.01142252	          0.00999999	          0.02203766	          0.01529483	          0.29446369	
          2.15890791	         -6.19108725	          4.77022085	         -8.30732656	          2.18751968	          0.93783294	          0.01605967	        -12.18458126	         -5.34233023	          3.95178189	         -9.81754214	         11.70463248	         30.12344771	         30.91306342	          1.56434464	         -4.41853409	         -7.21826409	          4.55058549	          0.18590979	         -3.28205120	         -3.64729327	          2.40593938	          0.07844635	          0.00999999	          0.01000000	          0.03577939	          0.04653093	          0.02435478	          0.09040385	          0.03577944	          0.44256644	          0.01000003	          0.01339392	          0.30172068	          0.23476955	          0.00999999	          0.07090525	          0.09913364	          0.01891540	          0.05821880	          0.14182664	          0.05471060	          0.12779061	          0.07916966	          0.05886970	          0.01000000	          0.00999999	          0.01781941	          0.01236723	          0.33675393	
          2.17311125	         -6.28552845	          4.57346267	         -8.24729250	          2.20571840	          0.93645044	          0.01508680	        -12.05111928	         -5.19234656	          3.53341074	        -11.88778396	         10.94603888	         32.25682404	         30.60640955	          1.56762341	         -4.44238095	         -8.35400481	          3.93249763	          0.15644256	         -2.97526807	         -3.91203037	          2.54699310	          0.10500400	          0.00999999	          0.01000000	          0.02893082	          0.05286944	          0.02483786	          0.07309955	          0.02893086	          0.42300687	          0.01000004	          0.01236729	          0.24396801	          0.19481372	          0.00999999	          0.08102939	          0.08015836	          0.01529478	          0.10850623	          0.16244047	          0.05282548	          0.10333008	          0.10435328	          0.04760139	          0.01000000	          0.00999999	          0.01440858	          0.01000001	          0.36752299	
          2.18731459	         -6.35614580	          4.37605414	         -8.14080772	          2.22378768	          0.93580570	          0.01402676	        -11.57954262	         -5.02627275	          3.09637453	        -14.54626639	          9.98318717	         34.41005606	         30.22393398	          1.57903997	         -4.51098402	         -9.40936514	          3.41673058	          0.12125559	         -2.70162241	         -4.18797048	          2.65585008	          0.12939814	          0.00999999	          0.01000000	          0.02339314	          0.07069217	          0.02688420	          0.05910749	          0.02339317	          0.38363641	          0.01000001	          0.01000005	          0.19726983	          0.15752422	          0.00999999	          0.07723479	          0.06481516	          0.01236719	          0.13268500	          0.17266389	          0.04967022	          0.08355156	          0.11368491	          0.03848996	          0.01000000	          0.03830075	          0.01165062	          0.01000001	          0.39473782	
          2.20151793	         -6.40164414	          4.17878233	         -7.99065690	          2.24157599	          0.93591357	          0.01290520	        -10.74392464	         -4.84757970	          2.62615637	        -17.80855494	          8.79234215	         36.44289569	         29.78139391	          1.59644653	         -4.61205617	        -10.40480877	          3.05452678	          0.09417384	         -2.47097690	         -4.47596217	          2.72914709	          0.13353511	          0.00999999	          0.01000000	          0.01891543	          0.08498847	          0.03577891	          0.04779368	          0.01891546	          0.32897762	          0.01000000	          0.00999999	          0.15951020	          0.12737234	          0.00999999	          0.07622588	          0.05240882	          0.00999999	          0.13912220	          0.13961418	          0.05400284	          0.06755887	          0.10631335	          0.03112255	          0.01000000	          0.09811582	          0.01000000	          0.01000000	          0.40530384	
          2.21572127	         -6.42341543	          3.97159370	         -7.80121580	          2.25897919	          0.93675598	          0.01176292	         -9.56500151	         -4.65462019	          2.11451086	        -21.60003400	          7.37895087	         38.06371312	         29.24609505	          1.61383690	         -4.70071941	        -11.26533146	          2.83503749	          0.06902438	         -2.29036202	         -4.76684146	          2.76639901	          0.14634580	          0.00999999	          0.01000000	          0.01529481	          0.10071200	          0.02893045	          0.05817603	          0.01529483	          0.26712456	          0.00999999	          0.00999999	          0.12897818	          0.10299186	          0.01000000	          0.06350062	          0.04237720	          0.00999999	          0.13785464	          0.11289048	          0.05057621	          0.05462736	          0.10480633	          0.02516535	          0.01000000	          0.15432045	          0.01000002	          0.01000001	          0.40527963	
          2.22992461	         -6.42352458	          3.74316665	         -7.57478038	          2.27593956	          0.93833804	          0.01062529	         -8.08451407	         -4.44943859	          1.55494267	        -25.82023951	          5.84290110	         38.78970494	         28.57419891	          1.62788198	         -4.73274756	        -11.90939622	          2.76233982	          0.05120262	         -2.16313448	         -5.04657209	          2.76808855	          0.15393137	          0.00999999	          0.01000002	          0.01236721	          0.10998257	          0.02339284	          0.06808888	          0.01236723	          0.21599396	          0.00999999	          0.00999999	          0.10429033	          0.08327808	          0.00999999	          0.05391099	          0.03426573	          0.00999999	          0.13006799	          0.09128199	          0.04797633	          0.04417108	          0.09966987	          0.02034843	          0.01000000	          0.18700146	          0.01000002	          0.01000002	          0.39446797	
          2.24412796	         -6.40391440	          3.47780484	         -7.31076925	          2.29247179	          0.94061229	          0.00951148	         -6.35811043	         -4.22880704	          0.96485880	        -30.34276213	          4.17553130	         38.45570721	         27.73698635	          1.62538725	         -4.69025163	        -12.28462346	          2.80467999	          0.04140631	         -2.08567612	         -5.29524645	          2.73402512	          0.15650927	          0.00999999	          0.01740826	          0.00999999	          0.12044960	          0.01891519	          0.07815317	          0.01000001	          0.17465033	          0.00999999	          0.00999999	          0.08432800	          0.06733773	          0.02227662	          0.04424888	          0.02770689	          0.00999999	          0.11577907	          0.07380961	          0.04583462	          0.03571625	          0.09374369	          0.01645351	          0.01000000	          0.20040755	          0.01000000	          0.01000001	          0.37825800	
          2.25833130	         -6.36608695	          3.15944012	         -7.00723558	          2.30859170	          0.94344557	          0.00843236	         -4.44732079	         -3.98032399	          0.37157704	        -35.02856865	          2.42638951	         36.93550067	         26.74302221	          1.58671816	         -4.57114031	        -12.40251381	          2.93274781	          0.04067974	         -2.05669590	         -5.49188525	          2.66540260	          0.16353879	          0.00999999	          0.03693358	          0.00999999	          0.13146220	          0.01529462	          0.08184958	          0.00999999	          0.14122032	          0.00999999	          0.00999999	          0.06818669	          0.05444854	          0.06139927	          0.03577916	          0.02240349	          0.00999999	          0.10078317	          0.05968163	          0.04350735	          0.02887977	          0.08899595	          0.01330413	          0.01000000	          0.19626343	          0.01000000	          0.01000000	          0.35822115	
